<?xml version="1.0" encoding="utf-8"?>
<!-- Generator: Adobe Illustrator 25.2.3, SVG Export Plug-In . SVG Version: 6.00 Build 0)  -->
<svg version="1.1" id="レイヤー_1" xmlns="http://www.w3.org/2000/svg" xmlns:xlink="http://www.w3.org/1999/xlink" x="0px"
	 y="0px" viewBox="0 0 280 45" style="enable-background:new 0 0 280 45;" xml:space="preserve">
<style type="text/css">
	.st0{fill:#333333;}
	.st1{fill:#A64A97;}
	.st2{fill:#ABCD03;}
	.st3{fill:#FDD000;}
	.st4{fill:#E8380D;}
</style>
<g>
	<g>
		<g>
			<path class="st0" d="M10.1,21.9v-1.4H1.9v1.4H1v-2.3h1.4c-0.1-0.3-0.2-0.6-0.3-0.9h1c0.1,0.2,0.2,0.6,0.3,0.9h2.2
				c-0.1-0.3-0.2-0.6-0.3-0.9H6c0.2,0.2,0.2,0.6,0.3,0.9h2.3l0.4-0.9h1l-0.4,0.9h1.4v2.3H10.1z M1.3,28.5v-3H5l0.3-1H2v-3h8v3H6.3
				l-0.3,1h4.7v3H1.3z M9.8,26.2H2.2v1.5h7.6V26.2z M9.1,22.3H2.8v1.4h6.3V22.3z"/>
			<path class="st0" d="M19.7,26.3c0.7,1,1.9,1.4,3.5,1.6v0.8c-2.1-0.2-3.5-1-4.4-2.3v2.3h-0.9v-2.3c-0.9,1.3-2.5,2.2-4.6,2.2v-0.8
				c1.6-0.2,3-0.6,3.7-1.6h-3.7v-0.7h4.6v-1h-4.2v-0.7h4.2v-1h-4.6V22h2.5c-0.1-0.4-0.2-0.9-0.4-1.3h-2.1v-0.8h1.3
				c-0.1-0.3-0.3-0.8-0.6-1.1h0.9c0.2,0.3,0.4,0.7,0.5,1.1h1v-1.4h0.9v1.4h1.8v-1.4h0.9v1.4h1l0.5-1.1h1l-0.6,1.1h1.3v0.8h-2L21,22
				h2.4v0.7h-4.6v1h4.2v0.7h-4.2v1h4.6v0.7C23.4,26.3,19.7,26.3,19.7,26.3z M16.5,20.7c0.2,0.3,0.3,0.8,0.4,1.3h3.3l0.4-1.3
				C20.6,20.7,16.5,20.7,16.5,20.7z"/>
			<path class="st0" d="M30.6,27.2c-1.4,0.7-3,1.2-4.8,1.4v-0.9c1.4-0.2,2.7-0.5,3.9-1c-1-0.8-2-1.8-2.7-3h1c0.6,1,1.5,1.8,2.6,2.5
				c1.4-0.8,2.5-1.8,3.4-3.1h-7.5v-0.9h3.8v-1.7h-4.6v-0.8h4.6v-1h1v1h4.5v0.9h-4.5v1.7h3.8v0.8c-0.9,1.5-2.1,2.7-3.5,3.7
				c1.3,0.6,2.7,1,4.2,1v0.9C33.9,28.6,32.1,28.1,30.6,27.2z"/>
			<path class="st0" d="M40.3,24.7v2.8c0,0.6-0.5,1.1-1.1,1.1h-0.9v-0.9h0.7c0.2,0,0.5-0.2,0.5-0.4v-2.4c-0.5,0.2-1,0.2-1.4,0.3
				v-0.9c0.4-0.1,1-0.2,1.4-0.3v-3h-1.4v-0.8h1.4v-1.5h0.9v1.5h1.2V21h-1.2v2.7c0.4-0.2,0.8-0.3,1.2-0.5v0.9
				C41.2,24.3,40.8,24.5,40.3,24.7z M45.6,28c-0.6,0.3-1.5,0.6-2.4,0.6v-0.7c0.6,0,1.2-0.2,1.7-0.3c-0.6-0.4-1-0.9-1.3-1.4
				c-0.6,1.3-1.4,2.1-2.2,2.5v-1c0.7-0.5,1.7-1.5,2-3.8H42v-0.7h1.5c0-0.3,0-0.6,0.1-0.9H42v-0.7h0.9c-0.2-0.5-0.3-1-0.6-1.2h0.8
				c0.2,0.3,0.4,0.8,0.6,1.2h1.2c-0.1-0.4-0.2-0.9-0.5-1.2h0.8c0.2,0.3,0.4,0.8,0.5,1.2h1l0.6-1.4h0.9l-0.6,1.2h0.6v0.7h-3.8
				c0,0.3,0,0.6-0.1,0.9h3.8v0.7h-3.9c-0.1,0.3-0.2,0.6-0.2,0.9h3.8v0.7c-0.2,0.8-0.7,1.5-1.4,2.1c0.6,0.2,1.2,0.3,1.8,0.3v0.7
				C47.2,28.6,46.3,28.4,45.6,28z M42,19.8V19c2,0,4.8,0,6.2-0.4v0.8C46.4,19.8,44,19.8,42,19.8z M43.8,25.5
				c-0.1,0.2-0.2,0.4-0.2,0.6h0.6c0.2,0.5,0.7,0.9,1.3,1.2c0.7-0.4,1.2-1,1.4-1.8H43.8z"/>
			<path class="st0" d="M51.7,24.4v-2.1c0-1.4-0.6-2-1.1-2v-1c1,0,2,0.9,2,3v2.1H51.7z M52.9,28.5h-1.7v-1h1.7
				c4.4,0,6.1-1.8,6.1-5.2v-3.1h1v3.1C60,26.3,57.9,28.5,52.9,28.5z M54.9,24.4v-2.1c0-1.4-0.6-2-1.1-2v-1c1,0,2,0.9,2,3v2.1H54.9z"
				/>
			<path class="st0" d="M63.3,24.3v-1h9v1H63.3z"/>
			<path class="st0" d="M75.2,28.5v-1c0.9,0,1.7-1.2,1.7-3.8V19h1v4.8C77.9,27,76.6,28.5,75.2,28.5z M81.3,28.5h-1.4V19h1v8.6h0.6
				c1.4,0,2.6-1.4,2.6-3.3v-1h1v1C85,26.8,83.5,28.5,81.3,28.5z"/>
		</g>
	</g>
	<g>
		<path class="st0" d="M171.3,11.3L171.3,11.3c0-0.7,0.6-1.3,1.2-1.3l0,0c0.6,0,1.2,0.6,1.2,1.2v0.1c0,0.6-0.6,1.2-1.2,1.2l0,0
			C171.8,12.5,171.3,11.9,171.3,11.3z"/>
		<g>
			<path class="st1" d="M209.6,23.9h-5c-2.4,0.1-3.6,0.9-3.6,2.6c0,0.7,0.3,1.4,1,1.8c0.6,0.6,1.6,0.8,3,0.8c1.8,0,3-0.2,3.7-0.6
				c0.6-0.5,1-1.4,1-3L209.6,23.9L209.6,23.9z"/>
			<circle class="st2" cx="144.2" cy="23.1" r="5.4"/>
			<path class="st3" d="M126.8,23.9h-5c-2.4,0.1-3.6,0.9-3.6,2.6c0,0.7,0.3,1.4,1,1.8c0.6,0.6,1.6,0.8,3,0.8c1.8,0,3-0.2,3.7-0.6
				c0.6-0.5,1-1.4,1-3V23.9z"/>
			<circle class="st4" cx="105.1" cy="23.1" r="5.4"/>
			<g>
				<path class="st0" d="M121.8,31.2c-1.7,0-3-0.5-3.8-1.4c-1-0.9-1.4-1.9-1.4-3.3c0-1.3,0.4-2.3,1.2-3.1c0.8-0.9,2-1.3,3.6-1.3h5
					v-2.3c0-0.7-0.2-1.3-0.6-1.8c-0.6-0.6-1.6-1-3-1h-0.2c-0.9,0-1.6,0.1-2.1,0.3c-0.4,0.2-0.8,0.5-1.1,0.8l-1.7-1.4
					c1.1-1.2,2.6-1.8,4.6-1.8h0.3c1.8,0,3.4,0.4,4.5,1.1c1,0.7,1.6,2,1.6,3.9v11h-2.2v-1.5h-0.9l-0.2,0.3c-0.2,0.5-0.6,0.8-1.1,1
					C123.7,31.1,122.9,31.2,121.8,31.2z M122,23.9c-2.8,0.1-3.4,1.4-3.4,2.6c0,0.7,0.3,1.4,1,1.8c0.6,0.5,1.4,0.8,2.6,0.8h0.2
					c1.4,0,2.3-0.2,3-0.6c0.7-0.5,1-1.4,1-2.9v-1.8L122,23.9L122,23.9z"/>
			</g>
			<g>
				<path class="st0" d="M156.2,31.1V15.3h2.2v1.8h0.8l0.2-0.2c1-1.2,2.2-1.8,3.8-1.8c1,0,1.9,0.3,2.6,0.9l-1.8,2.1
					c-0.6-0.4-1.4-0.6-2.1-0.6c-1,0-1.8,0.3-2.5,1c-0.8,0.6-1.2,1.7-1.2,3v9.6C158.4,31.1,156.2,31.1,156.2,31.1z"/>
			</g>
			<rect x="171.3" y="15.3" class="st0" width="2.2" height="15.8"/>
			<g>
				<polygon class="st0" points="191.3,31.1 186.7,22.8 183.5,26.5 183.5,31.1 181.4,31.1 181.4,8.5 183.5,8.5 183.5,23.1 
					184.3,23.1 184.6,23 190.7,15.3 193.2,15.3 188.1,21.3 194.2,31.1 				"/>
			</g>
			<path class="st0" d="M135.8,36.5V15.3h2.2v4.1l1-1c1.4-1.4,3.3-2.3,5.3-2.3c3.9,0,7.1,3.2,7.1,7.1s-3.2,7.1-7.1,7.1
				c-2,0-3.9-0.9-5.3-2.3l-1-1v9.6H135.8z M144.2,18.3c-2.6,0-4.8,2.2-4.8,4.8s2.2,4.8,4.8,4.8s4.8-2.2,4.8-4.8
				S146.8,18.3,144.2,18.3z"/>
			<path class="st0" d="M96.7,36.5V15.3h2.2v4.1l1-1c1.4-1.4,3.3-2.3,5.3-2.3c3.9,0,7.1,3.2,7.1,7.1s-3.2,7.1-7.1,7.1
				c-2,0-3.9-0.9-5.3-2.3l-1-1v9.6H96.7z M105.1,18.3c-2.6,0-4.8,2.2-4.8,4.8s2.2,4.8,4.8,4.8c2.6,0,4.8-2.2,4.8-4.8
				S107.7,18.3,105.1,18.3z"/>
			<path class="st0" d="M204.7,31.2c-1.7,0-3-0.5-3.8-1.4c-1-0.9-1.4-1.9-1.4-3.3c0-1.3,0.4-2.3,1.2-3.1c0.8-0.9,2-1.3,3.6-1.3h5
				v-2.3c0-0.7-0.2-1.3-0.6-1.8c-0.6-0.6-1.6-1-3-1h-0.2c-0.9,0-1.6,0.1-2.1,0.3c-0.4,0.2-0.8,0.5-1.1,0.8l-1.7-1.4
				c1.1-1.2,2.6-1.8,4.6-1.8h0.3c1.8,0,3.4,0.4,4.5,1.1c1,0.7,1.6,2,1.6,3.9v11h-2.2v-1.5h-1l-0.2,0.3c-0.2,0.5-0.6,0.8-1.1,1
				C206.4,31.1,205.6,31.2,204.7,31.2z M204.8,23.9c-2.8,0.1-3.4,1.4-3.4,2.6c0,0.7,0.3,1.4,1,1.8c0.6,0.5,1.4,0.8,2.6,0.8h0.2
				c1.4,0,2.3-0.2,3-0.6c0.7-0.5,1-1.4,1-2.9v-1.8L204.8,23.9L204.8,23.9z"/>
		</g>
	</g>
	<g>
		<path class="st0" d="M220.3,29.6v-1c1.5-0.2,2.2-1.4,2.2-3.5v-5h1v5C223.3,27.9,222.3,29.5,220.3,29.6z M229.3,22.1
			c-0.4,0-0.7-0.2-1-0.4v3.4c0,2.1,0.6,3.4,2.2,3.5v1c-2.1-0.2-3.1-1.8-3.1-4.6v-5h0.7c0.2-0.4,0.6-0.7,1.2-0.7
			c0.7,0,1.3,0.6,1.3,1.3S230,22.1,229.3,22.1z M229.3,20.1c-0.4,0-0.6,0.3-0.6,0.6c0,0.4,0.3,0.6,0.6,0.6c0.4,0,0.6-0.3,0.6-0.6
			C229.9,20.4,229.7,20.1,229.3,20.1z"/>
		<path class="st0" d="M242.1,21.9v1.5c0,4.2-1.8,6.3-6.6,6.3h-1.9v-1h2c4.2,0,5.6-1.7,5.6-5.3v-1.5h-7.9v-1h7.1c0-0.1,0-0.2,0-0.3
			c0-0.7,0.6-1.3,1.3-1.3s1.3,0.6,1.3,1.3C243,21.3,242.6,21.8,242.1,21.9z M241.6,20c-0.4,0-0.6,0.3-0.6,0.6c0,0.4,0.3,0.6,0.6,0.6
			c0.4,0,0.6-0.3,0.6-0.6C242.2,20.3,242,20,241.6,20z"/>
		<path class="st0" d="M245.7,25.2v-5.3h1v5.3H245.7z M249.5,29.2h-2.7v-1h2.7c2.6,0,4-1.1,4-4.1v-4.2h1v4.2
			C254.5,27.8,252.7,29.2,249.5,29.2z"/>
		<path class="st0" d="M264.3,29.3h-1.5v-1h1.5c1.3,0,1.7-0.5,1.7-1.8v-4.6h-5v2.2c0,3.5-1.4,5.1-3.2,5.1v-1c1.3,0,2.3-1.1,2.3-4.2
			v-2.2h-2.2v-1h2.2v-1.3h1V21h6v5.5C266.8,28.7,266,29.3,264.3,29.3z"/>
	</g>
</g>
</svg>
